<svg width="352" height="80" viewBox="0 0 352 80" fill="none" xmlns="http://www.w3.org/2000/svg">
<ellipse cx="41.1051" cy="40.9972" rx="11.0497" ry="11.0803" fill="#125C9B"/>
<path d="M41.1049 64.7091C41.1049 64.7091 46.6203 67.177 46.6298 70.2319C46.6394 73.2964 41.1049 75.7894 41.1049 75.7894C41.1049 75.7894 35.5705 73.2964 35.5801 70.2319C35.5896 67.177 41.1049 64.7091 41.1049 64.7091Z" fill="#125C9B"/>
<rect x="38.895" y="60.277" width="4.41989" height="6.6482" fill="#125C9B"/>
<path d="M41.1049 11.0803C41.1049 11.0803 46.6203 8.61247 46.6298 5.55752C46.6394 2.49299 41.1049 -1.04904e-05 41.1049 -1.04904e-05C41.1049 -1.04904e-05 35.5705 2.49299 35.5801 5.55752C35.5896 8.61247 41.1049 11.0803 41.1049 11.0803Z" fill="#125C9B"/>
<rect width="4.41989" height="6.6482" transform="matrix(1 0 0 -1 38.895 15.5125)" fill="#125C9B"/>
<path d="M68.9504 46.5375C68.9504 43.4825 74.458 40.9973 74.458 40.9973C74.458 40.9973 80.0002 43.4729 80.0002 46.5375C80.0002 49.602 74.458 52.0776 74.458 52.0776C74.458 52.0776 68.9504 49.5924 68.9504 46.5375Z" fill="#125C9B"/>
<rect x="64.5305" y="48.7535" width="4.43213" height="6.62983" transform="rotate(-90 64.5305 48.7535)" fill="#125C9B"/>
<path d="M11.0498 46.5375C11.0498 43.4825 5.54226 40.9973 5.54226 40.9973C5.54226 40.9973 8.10623e-05 43.4729 8.10623e-05 46.5375C8.10623e-05 49.602 5.54226 52.0776 5.54226 52.0776C5.54226 52.0776 11.0498 49.5924 11.0498 46.5375Z" fill="#125C9B"/>
<rect width="4.43213" height="6.62983" transform="matrix(0 -1 -1 0 15.4697 48.7535)" fill="#125C9B"/>
<path d="M41.1051 17.2964C42.6868 17.2964 44.5662 17.9526 46.7365 19.5808C48.9052 21.2078 51.1449 23.6473 53.3385 26.7665C57.7253 33.0042 61.555 41.4246 64.1126 49.7831C66.6933 58.2173 67.8224 66.0777 67.2256 71.239C66.921 73.8727 66.2406 75.1466 65.7554 75.6341C65.5606 75.8298 65.142 76.2446 63.5358 75.8174C62.0772 75.4295 60.7686 74.5134 59.3955 72.9701C58.1067 71.5216 56.9843 69.7908 55.6757 67.773C55.5319 67.5513 55.3859 67.3261 55.2371 67.0974C53.8387 64.9477 52.1561 62.421 50.0208 60.4695C47.7633 58.4063 44.8584 56.8499 41.1051 56.8499C37.3518 56.8499 34.4469 58.4063 32.1894 60.4695C30.0541 62.421 28.3715 64.9477 26.9731 67.0974C26.8243 67.3261 26.6783 67.5513 26.5345 67.773C25.2259 69.7908 24.1035 71.5216 22.8147 72.9701C21.4416 74.5134 20.133 75.4295 18.6744 75.8174C17.0682 76.2446 16.6496 75.8298 16.4548 75.6341C15.9696 75.1466 15.2892 73.8727 14.9846 71.239C14.3878 66.0777 15.5169 58.2173 18.0976 49.7831C20.6552 41.4246 24.4849 33.0042 28.8717 26.7665C31.0653 23.6473 33.305 21.2078 35.4736 19.5808C37.6439 17.9526 39.5234 17.2964 41.1051 17.2964Z" stroke="#D2F0FF" stroke-width="8"/>
<path d="M44.4199 40.9972C44.4199 40.9972 42.8242 39.9146 42.1047 38.7811C41.6169 38.0127 41.1154 36.5651 41.1154 36.5651C41.1154 36.5651 40.6069 38.0129 40.1157 38.7811C39.391 39.9145 37.7901 40.9972 37.7901 40.9972C37.7901 40.9972 39.4664 42.3478 40.1157 43.2133C40.765 44.0787 41.1154 45.4293 41.1154 45.4293C41.1154 45.4293 41.4594 44.0787 42.1047 43.2133C42.7499 42.3478 44.4199 40.9972 44.4199 40.9972Z" fill="#FFC4C4"/>
<path d="M42.873 5.54016C42.873 5.54016 42.0752 4.99887 41.7154 4.43213C41.4715 4.04793 41.2208 3.32409 41.2208 3.32409C41.2208 3.32409 40.9666 4.04804 40.7209 4.43213C40.3586 4.99882 39.5581 5.54016 39.5581 5.54016C39.5581 5.54016 40.3963 6.21548 40.7209 6.64819C41.0456 7.08091 41.2208 7.75623 41.2208 7.75623C41.2208 7.75623 41.3928 7.08091 41.7154 6.64819C42.038 6.21548 42.873 5.54016 42.873 5.54016Z" fill="#FFC4C4"/>
<path d="M42.873 70.2494C42.873 70.2494 42.0752 69.7081 41.7154 69.1414C41.4715 68.7572 41.2208 68.0333 41.2208 68.0333C41.2208 68.0333 40.9666 68.7573 40.7209 69.1414C40.3586 69.708 39.5581 70.2494 39.5581 70.2494C39.5581 70.2494 40.3963 70.9247 40.7209 71.3574C41.0456 71.7901 41.2208 72.4655 41.2208 72.4655C41.2208 72.4655 41.3928 71.7901 41.7154 71.3574C42.038 70.9247 42.873 70.2494 42.873 70.2494Z" fill="#FFC4C4"/>
<path d="M76.2432 46.5375C76.2432 46.5375 75.4453 45.9962 75.0855 45.4294C74.8416 45.0452 74.5909 44.3214 74.5909 44.3214C74.5909 44.3214 74.3367 45.0454 74.0911 45.4294C73.7287 45.9961 72.9282 46.5375 72.9282 46.5375C72.9282 46.5375 73.7664 47.2128 74.0911 47.6455C74.4157 48.0782 74.5909 48.7535 74.5909 48.7535C74.5909 48.7535 74.7629 48.0782 75.0855 47.6455C75.4082 47.2128 76.2432 46.5375 76.2432 46.5375Z" fill="#FFC4C4"/>
<path d="M7.29297 46.5375C7.29297 46.5375 6.49512 45.9962 6.13535 45.4294C5.89145 45.0452 5.64071 44.3214 5.64071 44.3214C5.64071 44.3214 5.38647 45.0454 5.14087 45.4294C4.7785 45.9961 3.97805 46.5375 3.97805 46.5375C3.97805 46.5375 4.81622 47.2128 5.14087 47.6455C5.46552 48.0782 5.64071 48.7535 5.64071 48.7535C5.64071 48.7535 5.81272 48.0782 6.13535 47.6455C6.45797 47.2128 7.29297 46.5375 7.29297 46.5375Z" fill="#FFC4C4"/>
<path d="M122.796 57H117.676V48.04H101.036V57H95.9163V30.12C95.9163 28.8827 96.3429 27.8373 97.1963 26.984C98.0923 26.088 99.1589 25.64 100.396 25.64H122.796V57ZM117.676 43.56V30.12H101.036V47.4L104.876 43.56H117.676ZM160.851 52.52C160.851 53.7573 160.403 54.824 159.507 55.72C158.654 56.5733 157.609 57 156.371 57H138.451C137.214 57 136.147 56.5733 135.251 55.72C134.398 54.824 133.971 53.7573 133.971 52.52V30.12C133.971 28.8827 134.398 27.8373 135.251 26.984C136.147 26.088 137.214 25.64 138.451 25.64H156.371C157.609 25.64 158.654 26.088 159.507 26.984C160.403 27.8373 160.851 28.8827 160.851 30.12V34.6H155.731V30.12H139.091V52.52H155.731V48.04H160.851V52.52ZM197.359 57H192.239V48.04H175.599V57H170.479V30.12C170.479 28.8827 170.905 27.8373 171.759 26.984C172.655 26.088 173.721 25.64 174.959 25.64H197.359V57ZM192.239 43.56V30.12H175.599V47.4L179.439 43.56H192.239ZM235.734 52.52C235.734 53.7147 235.286 54.76 234.39 55.656C233.494 56.552 232.448 57 231.254 57H208.854V34.6L213.334 30.12H208.854V25.64H231.254C232.448 25.64 233.494 26.088 234.39 26.984C235.286 27.88 235.734 28.9253 235.734 30.12V52.52ZM230.614 52.52V30.12H213.974V56.36L217.814 52.52H230.614ZM269.316 57H246.916V34.6L251.396 30.12H246.916V25.64H269.316V30.12H252.036V42.92L255.876 39.08H269.316V43.56H252.036V52.52H269.316V57ZM310.276 56.936H305.156V33.384L307.076 30.184H304.196L296.324 48.04H292.612L284.996 30.184H282.116L284.036 33.384V56.936H278.916V25.64H288.068L294.404 40.616H295.044L301.38 25.64H310.276V56.936ZM347.391 43.56C347.391 44.7973 346.943 45.864 346.047 46.76C345.194 47.6133 344.149 48.04 342.911 48.04H336.511V57H331.391V48.04H324.991C323.754 48.04 322.687 47.6133 321.791 46.76C320.938 45.864 320.511 44.7973 320.511 43.56V25.64H325.631V43.56H342.271V25.64H347.391V43.56Z" fill="#D2F0FF"/>
</svg>
